<svg fill="#ffffff" xmlns="http://www.w3.org/2000/svg"  viewBox="0 0 50 50" width="50px" height="50px"><path d="M 25 8 C 15.611 8 8 15.611 8 25 C 8 34.389 15.611 42 25 42 C 34.389 42 42 34.389 42 25 C 42 15.611 34.389 8 25 8 z M 25 9 C 33.837 9 41 16.163 41 25 C 41 33.837 33.837 41 25 41 C 16.163 41 9 33.837 9 25 C 9 16.163 16.163 9 25 9 z M 29.796875 17.40625 C 27.361875 17.40625 25.388672 19.404187 25.388672 21.867188 C 25.388672 22.216187 25.503906 22.882812 25.503906 22.882812 C 25.503906 22.882813 20.183969 22.915656 16.417969 18.222656 C 16.417969 18.222656 15.836313 19.007797 15.820312 20.466797 C 15.792313 22.940797 17.78125 24.177734 17.78125 24.177734 C 17.78125 24.177734 16.780203 24.204141 15.783203 23.619141 C 15.872203 27.450141 19.320312 28.048828 19.320312 28.048828 C 19.320312 28.048828 18.205125 28.266953 17.328125 28.126953 C 17.889125 29.898953 19.518266 31.189609 21.447266 31.224609 C 19.939266 32.421609 18.038656 33.134766 15.972656 33.134766 C 15.617656 33.134766 15.265922 33.112313 14.919922 33.070312 C 15.942922 34.192312 19.187734 35.074219 21.677734 35.074219 C 29.785734 35.074219 34.21875 28.278766 34.21875 22.384766 C 34.21875 22.191766 34.214078 21.997641 34.205078 21.806641 C 35.069078 21.177641 35.816203 20.393047 36.408203 19.498047 C 35.206203 20.051047 33.876953 20.201172 33.876953 20.201172 C 33.876953 20.201172 35.430453 19.290422 35.814453 17.732422 C 34.963453 18.243422 34.020625 18.615406 33.015625 18.816406 C 32.210625 17.948406 31.064875 17.40625 29.796875 17.40625 z"/></svg>